<svg id="Layer_1" data-name="Layer 1" xmlns="http://www.w3.org/2000/svg" viewBox="0 0 189 170.86"><defs><style>.cls-1{fill:#fff;}</style></defs><path class="cls-1" d="M186.75,38.32h0a54.15,54.15,0,0,0-76.36,0L108,40.7l-2.39-2.38a54.15,54.15,0,0,0-76.36,0h0a54.15,54.15,0,0,0,0,76.36l2.39,2.39L108,193.43l76.36-76.36,2.39-2.39A54.15,54.15,0,0,0,186.75,38.32Zm-73.08,111v12.19H104V149.4c-11.58-1.2-22.44-7-26.06-18.82l11.82-3.74c1.33,5.55,7.48,11.46,18.82,11.46,9.05,0,17.26-4,17.26-12.67,0-11.46-10.38-11.94-23.77-15.2-17-4.1-20.76-13-20.76-24,0-12.67,9.54-22,22.69-23.89V50.35h9.65V62.41c10,1.57,18,7.85,21,18l-11.82,2.9c-1.69-5.07-5.91-9.9-14.84-9.9-8.21,0-14.72,5-14.72,13,0,10.74,10.26,12.43,21,14.84C130.68,105.12,138,111,138,124.67,138,135.41,131.29,147.35,113.67,149.28Z" transform="translate(-13.5 -22.57)"/></svg>