<svg id="Layer_1" data-name="Layer 1" xmlns="http://www.w3.org/2000/svg" viewBox="0 0 178 130.93"><defs><style>.cls-1{fill:#fff;}</style></defs><path class="cls-1" d="M108,124.44a6.81,6.81,0,0,0,4.86-2l76.65-76.65a17.52,17.52,0,0,0-10.16-3.25H36.65a17.52,17.52,0,0,0-10.16,3.25l76.65,76.65A6.81,6.81,0,0,0,108,124.44Z" transform="translate(-19 -42.54)"/><path class="cls-1" d="M194,165.63a17.48,17.48,0,0,0,3-9.82V60.19a17.52,17.52,0,0,0-3.32-10.25L136,107.63Z" transform="translate(-19 -42.54)"/><path class="cls-1" d="M26.07,169.89a17.54,17.54,0,0,0,10.58,3.57h142.7a17.54,17.54,0,0,0,10.58-3.57l-58.1-58.1L117,126.6a12.78,12.78,0,0,1-18,0l-14.8-14.81Z" transform="translate(-19 -42.54)"/><path class="cls-1" d="M80,107.63,22.32,49.94A17.52,17.52,0,0,0,19,60.19v95.62a17.48,17.48,0,0,0,3,9.82Z" transform="translate(-19 -42.54)"/></svg>