<svg id="Layer_1" data-name="Layer 1" xmlns="http://www.w3.org/2000/svg" viewBox="0 0 176 139.99"><defs><style>.cls-1{fill:#fff;}</style></defs><path class="cls-1" d="M138.28,178H47.7A24.73,24.73,0,0,1,23,153.29V62.71A24.73,24.73,0,0,1,47.7,38h90.58A24.74,24.74,0,0,1,163,62.71v6.74L146.52,85.92V62.71a8.25,8.25,0,0,0-8.24-8.23H47.7a8.24,8.24,0,0,0-8.23,8.23v90.58a8.24,8.24,0,0,0,8.23,8.23h90.58a8.25,8.25,0,0,0,8.24-8.23v-9.21L163,127.61v25.68A24.74,24.74,0,0,1,138.28,178Z" transform="translate(-23 -38.01)"/><rect class="cls-1" x="35.68" y="31.57" width="69.99" height="10.98"/><rect class="cls-1" x="35.68" y="54.9" width="69.99" height="10.98"/><rect class="cls-1" x="35.68" y="78.23" width="52.15" height="10.98"/><rect class="cls-1" x="35.68" y="101.56" width="35.68" height="10.98"/><line class="cls-1" x1="158.85" y1="41.52" x2="170.18" y2="30.19"/><rect class="cls-1" x="179.51" y="65.63" width="16.02" height="16.47" transform="translate(-20.31 116.21) rotate(-45)"/><line class="cls-1" x1="105.68" y1="94.7" x2="152.08" y2="48.29"/><rect class="cls-1" x="119.06" y="101.26" width="65.63" height="16.47" transform="translate(-55.94 101.46) rotate(-45)"/><line class="cls-1" x1="89.21" y1="111.16" x2="100.19" y2="100.19"/><polygon class="cls-1" points="100.52 111.5 89.21 111.17 88.87 99.85 94.36 94.36 106.01 106.01 100.52 111.5"/></svg>